# xmcd
#
# Track frame offsets:
#	150
#	14934
#	30062
#	46419
#	53066
#	67889
#	82148
#	88764
#	106894
#	121903
#	133957
#	140620
#	155435
#	169313
#
# Disc length: 2338 seconds
#
# Revision: 0
# Processed by: cddbd v1.5.2PL0 Copyright (c) Steve Scherf et al.
# Submitted via: dBpowerAMP V4.0
#
DISCID=bf09200e
DTITLE=Larry Hosford - Crosswords
DYEAR=1900
DGENRE=
TTITLE0=Why I Spend So Much Time In The Bars
TTITLE1=If I Could Talk As Fast As I Think
TTITLE2=Direct Me
TTITLE3=Crossword Puzzle #1
TTITLE4=Wishing I Could
TTITLE5=Loving You, Like I Do
TTITLE6=Crossword Puzzle #2
TTITLE7=Last Chance Romance
TTITLE8=Nobody Remembers The Losers
TTITLE9=She Went Back Home To Her Momma
TTITLE10=Crossword Puzzle #3
TTITLE11=50% Of The Blame
TTITLE12=The World Outside
TTITLE13=Crossword Puzzle #4
EXTD=
EXTT0=
EXTT1=
EXTT2=
EXTT3=
EXTT4=
EXTT5=
EXTT6=
EXTT7=
EXTT8=
EXTT9=
EXTT10=
EXTT11=
EXTT12=
EXTT13=
PLAYORDER=
